ffmpeg started on 2025-06-05 at 19:54:08
Report written to "D:\Convert\FFMetrics\reports\ssim_report-6.txt"
Log level: 32
Command line:
ffmpeg -hide_banner -nostdin -i "G:\\\xc0\xed\xe8\xec\xe5\\\xce\xed\xe3\xee\xe8\xed\xe3\xe8\\!_36_\xce\xf1\xe5\xed\xfc_2024\\DreamCast\\\xcd\xe0\xef\xe0\xe4\xe5\xed\xe8\xe5 \xee\xe4\xe8\xed\xee\xf7\xea\xe8 \xed\xe0 \xe8\xed\xee\xe9 \xec\xe8\xf0\\[DC] Hitoribocchi no Isekai Kouryaku - 10_Telegram_HEVC.mkv" -i "G:\\\xc0\xed\xe8\xec\xe5\\\xce\xed\xe3\xee\xe8\xed\xe3\xe8\\!_36_\xce\xf1\xe5\xed\xfc_2024\\DreamCast\\\xcd\xe0\xef\xe0\xe4\xe5\xed\xe8\xe5 \xee\xe4\xe8\xed\xee\xf7\xea\xe8 \xed\xe0 \xe8\xed\xee\xe9 \xec\xe8\xf0\\[DC] Hitoribocchi no Isekai Kouryaku - 10_Telegram.mp4" -lavfi "[0:v]settb=AVTB,setpts=PTS-STARTPTS,format=pix_fmts=yuv420p10,fps=24000/1001,scale=1920:1080:flags=bicubic[main];[1:v]settb=AVTB,setpts=PTS-STARTPTS,format=pix_fmts=yuv420p,fps=24000/1001,scale=1920:1080:flags=bicubic[ref];[main][ref]ssim=eof_action=endall:stats_file='D\\:/Convert/FFMetrics/logs/ssim_logfile-6.txt'" -f null -
Input #0, matroska,webm, from 'G:\Аниме\Онгоинги\!_36_Осень_2024\DreamCast\Нападение одиночки на иной мир\[DC] Hitoribocchi no Isekai Kouryaku - 10_Telegram_HEVC.mkv':
  Metadata:
    COMPATIBLE_BRANDS: isomiso2avc1mp41
    MAJOR_BRAND     : isom
    MINOR_VERSION   : 512
    ENCODER         : Lavf61.7.100
  Duration: 00:23:49.08, start: -0.021000, bitrate: 1290 kb/s
  Stream #0:0: Video: hevc (Main 10), yuv420p10le(tv, bt709, progressive), 1920x1080 [SAR 1:1 DAR 16:9], 23.98 fps, 23.98 tbr, 1k tbn (default)
      Metadata:
        HANDLER_NAME    : VideoHandler
        VENDOR_ID       : [0][0][0][0]
        ENCODER         : Lavc61.19.100 libx265
        BPS             : 1092138
        DURATION        : 00:23:48.969708333
        NUMBER_OF_FRAMES: 34261
        NUMBER_OF_BYTES : 195078985
        _STATISTICS_WRITING_APP: mkvpropedit v66.0.0 ('Josie') 64-bit
        _STATISTICS_WRITING_DATE_UTC: 2025-05-31 11:34:24
        _STATISTICS_TAGS: BPS DURATION NUMBER_OF_FRAMES NUMBER_OF_BYTES
  Stream #0:1: Audio: aac (LC), 48000 Hz, stereo, fltp (default)
      Metadata:
        HANDLER_NAME    : SoundHandler
        VENDOR_ID       : [0][0][0][0]
        ENCODER         : Lavc61.19.100 aac
        BPS             : 194661
        DURATION        : 00:23:49.077000000
        NUMBER_OF_FRAMES: 66989
        NUMBER_OF_BYTES : 34773338
        _STATISTICS_WRITING_APP: mkvpropedit v66.0.0 ('Josie') 64-bit
        _STATISTICS_WRITING_DATE_UTC: 2025-05-31 11:34:24
        _STATISTICS_TAGS: BPS DURATION NUMBER_OF_FRAMES NUMBER_OF_BYTES
Input #1, mov,mp4,m4a,3gp,3g2,mj2, from 'G:\Аниме\Онгоинги\!_36_Осень_2024\DreamCast\Нападение одиночки на иной мир\[DC] Hitoribocchi no Isekai Kouryaku - 10_Telegram.mp4':
  Metadata:
    major_brand     : isom
    minor_version   : 512
    compatible_brands: isomiso2avc1mp41
    encoder         : Lavf61.1.100
  Duration: 00:23:49.03, start: 0.000000, bitrate: 3566 kb/s
  Stream #1:0[0x1](und): Video: h264 (High) (avc1 / 0x31637661), yuv420p(tv, bt709, progressive), 1920x1080 [SAR 1:1 DAR 16:9], 3419 kb/s, 23.98 fps, 23.98 tbr, 24k tbn (default)
      Metadata:
        handler_name    : VideoHandler
        vendor_id       : [0][0][0][0]
        encoder         : Lavc61.3.100 h264_qsv
  Stream #1:1[0x2](und): Audio: aac (HE-AACv2) (mp4a / 0x6134706D), 48000 Hz, stereo, fltp, 144 kb/s (default)
      Metadata:
        handler_name    : SoundHandler
        vendor_id       : [0][0][0][0]
Stream mapping:
  Stream #0:0 (hevc) -> settb:default
  Stream #1:0 (h264) -> settb:default
  ssim:default -> Stream #0:0 (wrapped_avframe)
  Stream #0:1 -> #0:1 (aac (native) -> pcm_s16le (native))
Output #0, null, to 'pipe:':
  Metadata:
    COMPATIBLE_BRANDS: isomiso2avc1mp41
    MAJOR_BRAND     : isom
    MINOR_VERSION   : 512
    encoder         : Lavf61.7.100
  Stream #0:0: Video: wrapped_avframe, yuv420p10le(tv, bt709, progressive), 1920x1080 [SAR 1:1 DAR 16:9], q=2-31, 200 kb/s, 23.98 fps, 23.98 tbn
      Metadata:
        encoder         : Lavc61.19.100 wrapped_avframe
  Stream #0:1: Audio: pcm_s16le, 48000 Hz, stereo, s16, 1536 kb/s (default)
      Metadata:
        HANDLER_NAME    : SoundHandler
        VENDOR_ID       : [0][0][0][0]
        _STATISTICS_TAGS: BPS DURATION NUMBER_OF_FRAMES NUMBER_OF_BYTES
        BPS             : 194661
        DURATION        : 00:23:49.077000000
        NUMBER_OF_FRAMES: 66989
        NUMBER_OF_BYTES : 34773338
        _STATISTICS_WRITING_APP: mkvpropedit v66.0.0 ('Josie') 64-bit
        _STATISTICS_WRITING_DATE_UTC: 2025-05-31 11:34:24
        encoder         : Lavc61.19.100 pcm_s16le
frame=  170 fps=0.0 q=-0.0 size=N/A time=00:00:07.09 bitrate=N/A speed=13.4x    frame=  436 fps=414 q=-0.0 size=N/A time=00:00:18.18 bitrate=N/A speed=17.3x    frame=  674 fps=431 q=-0.0 size=N/A time=00:00:28.11 bitrate=N/A speed=  18x    frame=  898 fps=431 q=-0.0 size=N/A time=00:00:37.45 bitrate=N/A speed=  18x    frame= 1128 fps=435 q=-0.0 size=N/A time=00:00:47.04 bitrate=N/A speed=18.2x    frame= 1346 fps=432 q=-0.0 size=N/A time=00:00:56.13 bitrate=N/A speed=  18x    frame= 1553 fps=429 q=-0.0 size=N/A time=00:01:04.77 bitrate=N/A speed=17.9x    frame= 1754 fps=423 q=-0.0 size=N/A time=00:01:13.15 bitrate=N/A speed=17.7x    frame= 1973 fps=424 q=-0.0 size=N/A time=00:01:22.29 bitrate=N/A speed=17.7x    frame= 2213 fps=427 q=-0.0 size=N/A time=00:01:32.30 bitrate=N/A speed=17.8x    frame= 2438 fps=429 q=-0.0 size=N/A time=00:01:41.68 bitrate=N/A speed=17.9x    frame= 2662 fps=429 q=-0.0 size=N/A time=00:01:51.02 bitrate=N/A speed=17.9x    frame= 2828 fps=421 q=-0.0 size=N/A time=00:01:57.95 bitrate=N/A speed=17.6x    frame= 3054 fps=421 q=-0.0 size=N/A time=00:02:07.37 bitrate=N/A speed=17.6x    frame= 3232 fps=416 q=-0.0 size=N/A time=00:02:14.80 bitrate=N/A speed=17.4x    frame= 3424 fps=413 q=-0.0 size=N/A time=00:02:22.80 bitrate=N/A speed=17.2x    frame= 3591 fps=408 q=-0.0 size=N/A time=00:02:29.77 bitrate=N/A speed=  17x    frame= 3756 fps=403 q=-0.0 size=N/A time=00:02:36.65 bitrate=N/A speed=16.8x    frame= 3937 fps=401 q=-0.0 size=N/A time=00:02:44.20 bitrate=N/A speed=16.7x    frame= 4127 fps=399 q=-0.0 size=N/A time=00:02:52.13 bitrate=N/A speed=16.6x    frame= 4252 fps=391 q=-0.0 size=N/A time=00:02:57.34 bitrate=N/A speed=16.3x    frame= 4404 fps=387 q=-0.0 size=N/A time=00:03:03.68 bitrate=N/A speed=16.1x    frame= 4553 fps=383 q=-0.0 size=N/A time=00:03:09.89 bitrate=N/A speed=  16x    frame= 4762 fps=384 q=-0.0 size=N/A time=00:03:18.61 bitrate=N/A speed=  16x    frame= 4973 fps=385 q=-0.0 size=N/A time=00:03:27.41 bitrate=N/A speed=16.1x    frame= 5197 fps=386 q=-0.0 size=N/A time=00:03:36.75 bitrate=N/A speed=16.1x    frame= 5435 fps=389 q=-0.0 size=N/A time=00:03:46.68 bitrate=N/A speed=16.2x    frame= 5687 fps=393 q=-0.0 size=N/A time=00:03:57.19 bitrate=N/A speed=16.4x    frame= 5908 fps=394 q=-0.0 size=N/A time=00:04:06.41 bitrate=N/A speed=16.4x    frame= 6105 fps=394 q=-0.0 size=N/A time=00:04:14.62 bitrate=N/A speed=16.4x    frame= 6334 fps=396 q=-0.0 size=N/A time=00:04:24.18 bitrate=N/A speed=16.5x    frame= 6603 fps=399 q=-0.0 size=N/A time=00:04:35.40 bitrate=N/A speed=16.7x    frame= 6867 fps=403 q=-0.0 size=N/A time=00:04:46.41 bitrate=N/A speed=16.8x    frame= 7092 fps=404 q=-0.0 size=N/A time=00:04:55.79 bitrate=N/A speed=16.8x    frame= 7240 fps=401 q=-0.0 size=N/A time=00:05:01.96 bitrate=N/A speed=16.7x    frame= 7397 fps=398 q=-0.0 size=N/A time=00:05:08.51 bitrate=N/A speed=16.6x    frame= 7562 fps=396 q=-0.0 size=N/A time=00:05:15.44 bitrate=N/A speed=16.5x    frame= 7768 fps=396 q=-0.0 size=N/A time=00:05:23.99 bitrate=N/A speed=16.5x    frame= 8036 fps=399 q=-0.0 size=N/A time=00:05:35.16 bitrate=N/A speed=16.6x    frame= 8306 fps=402 q=-0.0 size=N/A time=00:05:46.42 bitrate=N/A speed=16.8x    frame= 8548 fps=404 q=-0.0 size=N/A time=00:05:56.52 bitrate=N/A speed=16.8x    frame= 8781 fps=405 q=-0.0 size=N/A time=00:06:06.24 bitrate=N/A speed=16.9x    frame= 8996 fps=405 q=-0.0 size=N/A time=00:06:15.20 bitrate=N/A speed=16.9x    frame= 9246 fps=407 q=-0.0 size=N/A time=00:06:25.63 bitrate=N/A speed=  17x    frame= 9487 fps=408 q=-0.0 size=N/A time=00:06:35.68 bitrate=N/A speed=  17x    frame= 9735 fps=410 q=-0.0 size=N/A time=00:06:46.03 bitrate=N/A speed=17.1x    frame=10006 fps=412 q=-0.0 size=N/A time=00:06:57.33 bitrate=N/A speed=17.2x    frame=10239 fps=413 q=-0.0 size=N/A time=00:07:07.05 bitrate=N/A speed=17.2x    frame=10499 fps=415 q=-0.0 size=N/A time=00:07:17.89 bitrate=N/A speed=17.3x    frame=10754 fps=417 q=-0.0 size=N/A time=00:07:28.53 bitrate=N/A speed=17.4x    frame=11014 fps=418 q=-0.0 size=N/A time=00:07:39.37 bitrate=N/A speed=17.5x    frame=11289 fps=420 q=-0.0 size=N/A time=00:07:50.84 bitrate=N/A speed=17.5x    frame=11534 fps=421 q=-0.0 size=N/A time=00:08:01.06 bitrate=N/A speed=17.6x    frame=11766 fps=422 q=-0.0 size=N/A time=00:08:10.74 bitrate=N/A speed=17.6x    frame=12007 fps=423 q=-0.0 size=N/A time=00:08:20.79 bitrate=N/A speed=17.6x    frame=12212 fps=422 q=-0.0 size=N/A time=00:08:29.34 bitrate=N/A speed=17.6x    frame=12433 fps=422 q=-0.0 size=N/A time=00:08:38.55 bitrate=N/A speed=17.6x    frame=12668 fps=423 q=-0.0 size=N/A time=00:08:48.36 bitrate=N/A speed=17.6x    frame=12906 fps=424 q=-0.0 size=N/A time=00:08:58.28 bitrate=N/A speed=17.7x    frame=13110 fps=423 q=-0.0 size=N/A time=00:09:06.79 bitrate=N/A speed=17.7x    frame=13335 fps=423 q=-0.0 size=N/A time=00:09:16.18 bitrate=N/A speed=17.7x    frame=13568 fps=424 q=-0.0 size=N/A time=00:09:25.89 bitrate=N/A speed=17.7x    frame=13818 fps=425 q=-0.0 size=N/A time=00:09:36.32 bitrate=N/A speed=17.7x    frame=14032 fps=425 q=-0.0 size=N/A time=00:09:45.25 bitrate=N/A speed=17.7x    frame=14250 fps=425 q=-0.0 size=N/A time=00:09:54.34 bitrate=N/A speed=17.7x    frame=14452 fps=424 q=-0.0 size=N/A time=00:10:02.76 bitrate=N/A speed=17.7x    frame=14655 fps=424 q=-0.0 size=N/A time=00:10:11.23 bitrate=N/A speed=17.7x    frame=14860 fps=423 q=-0.0 size=N/A time=00:10:19.78 bitrate=N/A speed=17.7x    frame=15072 fps=423 q=-0.0 size=N/A time=00:10:28.62 bitrate=N/A speed=17.6x    frame=15257 fps=422 q=-0.0 size=N/A time=00:10:36.34 bitrate=N/A speed=17.6x    frame=15462 fps=422 q=-0.0 size=N/A time=00:10:44.89 bitrate=N/A speed=17.6x    frame=15667 fps=422 q=-0.0 size=N/A time=00:10:53.44 bitrate=N/A speed=17.6x    frame=15909 fps=422 q=-0.0 size=N/A time=00:11:03.53 bitrate=N/A speed=17.6x    frame=16106 fps=422 q=-0.0 size=N/A time=00:11:11.75 bitrate=N/A speed=17.6x    frame=16351 fps=422 q=-0.0 size=N/A time=00:11:21.97 bitrate=N/A speed=17.6x    frame=16588 fps=423 q=-0.0 size=N/A time=00:11:31.85 bitrate=N/A speed=17.6x    frame=16820 fps=423 q=-0.0 size=N/A time=00:11:41.53 bitrate=N/A speed=17.7x    frame=17066 fps=424 q=-0.0 size=N/A time=00:11:51.79 bitrate=N/A speed=17.7x    frame=17312 fps=425 q=-0.0 size=N/A time=00:12:02.05 bitrate=N/A speed=17.7x    frame=17563 fps=425 q=-0.0 size=N/A time=00:12:12.52 bitrate=N/A speed=17.7x    frame=17831 fps=427 q=-0.0 size=N/A time=00:12:23.70 bitrate=N/A speed=17.8x    frame=18089 fps=428 q=-0.0 size=N/A time=00:12:34.46 bitrate=N/A speed=17.8x    frame=18344 fps=428 q=-0.0 size=N/A time=00:12:45.09 bitrate=N/A speed=17.9x    frame=18584 fps=429 q=-0.0 size=N/A time=00:12:55.10 bitrate=N/A speed=17.9x    frame=18842 fps=430 q=-0.0 size=N/A time=00:13:05.86 bitrate=N/A speed=17.9x    frame=19092 fps=430 q=-0.0 size=N/A time=00:13:16.29 bitrate=N/A speed=17.9x    frame=19307 fps=430 q=-0.0 size=N/A time=00:13:25.26 bitrate=N/A speed=17.9x    frame=19565 fps=431 q=-0.0 size=N/A time=00:13:36.02 bitrate=N/A speed=  18x    frame=19808 fps=431 q=-0.0 size=N/A time=00:13:46.15 bitrate=N/A speed=  18x    frame=20061 fps=432 q=-0.0 size=N/A time=00:13:56.71 bitrate=N/A speed=  18x    frame=20327 fps=433 q=-0.0 size=N/A time=00:14:07.80 bitrate=N/A speed=  18x    frame=20579 fps=433 q=-0.0 size=N/A time=00:14:18.31 bitrate=N/A speed=18.1x    frame=20774 fps=433 q=-0.0 size=N/A time=00:14:26.44 bitrate=N/A speed=18.1x    frame=20974 fps=432 q=-0.0 size=N/A time=00:14:34.79 bitrate=N/A speed=  18x    frame=21246 fps=433 q=-0.0 size=N/A time=00:14:46.13 bitrate=N/A speed=18.1x    frame=21475 fps=433 q=-0.0 size=N/A time=00:14:55.68 bitrate=N/A speed=18.1x    frame=21701 fps=433 q=-0.0 size=N/A time=00:15:05.11 bitrate=N/A speed=18.1x    frame=21913 fps=433 q=-0.0 size=N/A time=00:15:13.95 bitrate=N/A speed=18.1x    frame=22125 fps=433 q=-0.0 size=N/A time=00:15:22.79 bitrate=N/A speed=18.1x    frame=22329 fps=433 q=-0.0 size=N/A time=00:15:31.30 bitrate=N/A speed=  18x    frame=22552 fps=433 q=-0.0 size=N/A time=00:15:40.60 bitrate=N/A speed=  18x    frame=22781 fps=433 q=-0.0 size=N/A time=00:15:50.15 bitrate=N/A speed=18.1x    frame=23021 fps=433 q=-0.0 size=N/A time=00:16:00.16 bitrate=N/A speed=18.1x    frame=23237 fps=433 q=-0.0 size=N/A time=00:16:09.17 bitrate=N/A speed=18.1x    frame=23505 fps=434 q=-0.0 size=N/A time=00:16:20.35 bitrate=N/A speed=18.1x    frame=23762 fps=434 q=-0.0 size=N/A time=00:16:31.07 bitrate=N/A speed=18.1x    frame=24010 fps=435 q=-0.0 size=N/A time=00:16:41.41 bitrate=N/A speed=18.1x    frame=24267 fps=435 q=-0.0 size=N/A time=00:16:52.13 bitrate=N/A speed=18.2x    frame=24535 fps=436 q=-0.0 size=N/A time=00:17:03.31 bitrate=N/A speed=18.2x    frame=24805 fps=437 q=-0.0 size=N/A time=00:17:14.57 bitrate=N/A speed=18.2x    frame=25066 fps=438 q=-0.0 size=N/A time=00:17:25.46 bitrate=N/A speed=18.2x    frame=25324 fps=438 q=-0.0 size=N/A time=00:17:36.22 bitrate=N/A speed=18.3x    frame=25595 fps=439 q=-0.0 size=N/A time=00:17:47.52 bitrate=N/A speed=18.3x    frame=25817 fps=439 q=-0.0 size=N/A time=00:17:56.78 bitrate=N/A speed=18.3x    frame=26045 fps=439 q=-0.0 size=N/A time=00:18:06.29 bitrate=N/A speed=18.3x    frame=26289 fps=439 q=-0.0 size=N/A time=00:18:16.47 bitrate=N/A speed=18.3x    frame=26545 fps=440 q=-0.0 size=N/A time=00:18:27.14 bitrate=N/A speed=18.3x    frame=26804 fps=440 q=-0.0 size=N/A time=00:18:37.95 bitrate=N/A speed=18.4x    frame=27032 fps=440 q=-0.0 size=N/A time=00:18:47.45 bitrate=N/A speed=18.4x    frame=27279 fps=441 q=-0.0 size=N/A time=00:18:57.76 bitrate=N/A speed=18.4x    frame=27528 fps=441 q=-0.0 size=N/A time=00:19:08.14 bitrate=N/A speed=18.4x    frame=27789 fps=441 q=-0.0 size=N/A time=00:19:19.03 bitrate=N/A speed=18.4x    frame=28052 fps=442 q=-0.0 size=N/A time=00:19:30.00 bitrate=N/A speed=18.4x    frame=28289 fps=442 q=-0.0 size=N/A time=00:19:39.88 bitrate=N/A speed=18.4x    frame=28527 fps=442 q=-0.0 size=N/A time=00:19:49.81 bitrate=N/A speed=18.4x    frame=28745 fps=442 q=-0.0 size=N/A time=00:19:58.90 bitrate=N/A speed=18.4x    frame=29002 fps=443 q=-0.0 size=N/A time=00:20:09.62 bitrate=N/A speed=18.5x    frame=29254 fps=443 q=-0.0 size=N/A time=00:20:20.13 bitrate=N/A speed=18.5x    frame=29490 fps=443 q=-0.0 size=N/A time=00:20:29.97 bitrate=N/A speed=18.5x    frame=29705 fps=443 q=-0.0 size=N/A time=00:20:38.94 bitrate=N/A speed=18.5x    frame=29946 fps=443 q=-0.0 size=N/A time=00:20:48.99 bitrate=N/A speed=18.5x    frame=30197 fps=443 q=-0.0 size=N/A time=00:20:59.46 bitrate=N/A speed=18.5x    frame=30464 fps=444 q=-0.0 size=N/A time=00:21:10.60 bitrate=N/A speed=18.5x    frame=30723 fps=444 q=-0.0 size=N/A time=00:21:21.40 bitrate=N/A speed=18.5x    frame=30908 fps=444 q=-0.0 size=N/A time=00:21:29.12 bitrate=N/A speed=18.5x    frame=31154 fps=444 q=-0.0 size=N/A time=00:21:39.38 bitrate=N/A speed=18.5x    frame=31396 fps=444 q=-0.0 size=N/A time=00:21:49.47 bitrate=N/A speed=18.5x    frame=31629 fps=444 q=-0.0 size=N/A time=00:21:59.19 bitrate=N/A speed=18.5x    frame=31855 fps=444 q=-0.0 size=N/A time=00:22:08.61 bitrate=N/A speed=18.5x    frame=32074 fps=444 q=-0.0 size=N/A time=00:22:17.75 bitrate=N/A speed=18.5x    frame=32268 fps=444 q=-0.0 size=N/A time=00:22:25.84 bitrate=N/A speed=18.5x    frame=32498 fps=444 q=-0.0 size=N/A time=00:22:35.43 bitrate=N/A speed=18.5x    frame=32710 fps=443 q=-0.0 size=N/A time=00:22:44.27 bitrate=N/A speed=18.5x    frame=32912 fps=443 q=-0.0 size=N/A time=00:22:52.70 bitrate=N/A speed=18.5x    frame=33097 fps=442 q=-0.0 size=N/A time=00:23:00.42 bitrate=N/A speed=18.5x    frame=33263 fps=442 q=-0.0 size=N/A time=00:23:07.34 bitrate=N/A speed=18.4x    frame=33450 fps=441 q=-0.0 size=N/A time=00:23:15.14 bitrate=N/A speed=18.4x    frame=33695 fps=441 q=-0.0 size=N/A time=00:23:25.36 bitrate=N/A speed=18.4x    frame=33941 fps=441 q=-0.0 size=N/A time=00:23:35.62 bitrate=N/A speed=18.4x    frame=34173 fps=441 q=-0.0 size=N/A time=00:23:45.29 bitrate=N/A speed=18.4x    [Parsed_ssim_10 @ 000001742db68d80] SSIM Y:0.993920 (22.161110) U:0.994651 (22.717297) V:0.993758 (22.046976) All:0.994015 (22.229377)
[out#0/null @ 000001742dad4ac0] video:14722KiB audio:267956KiB subtitle:0KiB other streams:0KiB global headers:0KiB muxing overhead: unknown
frame=34261 fps=442 q=-0.0 Lsize=N/A time=00:23:48.96 bitrate=N/A speed=18.4x    
